<svg xmlns="http://www.w3.org/2000/svg" xmlns:xlink="http://www.w3.org/1999/xlink" version="1.1" x="0px" y="0px" viewBox="0 0 512 512" style="enable-background:new 0 0 512 512;max-width:100%" xml:space="preserve" height="100%">
<g style="" fill="#D0BD8C"><g style="" fill="#D0BD8C">
<path d="M233.944,251.009c-18.671,0-33.861,15.19-33.861,33.86v40.696h27.959v-23.299    c0-2.574,2.086-4.66,4.66-4.66s4.66,2.086,4.66,4.66v23.299h37.279v-23.299c0-2.574,2.086-4.66,4.659-4.66    c2.574,0,4.66,2.086,4.66,4.66v23.299h27.958v-40.696c0-18.67-15.189-33.86-33.86-33.86H233.944z" style="" fill="#D0BD8C"></path>
<path d="M256,213.73c15.417,0,27.959-12.542,27.959-27.959c0-15.416-12.542-27.958-27.959-27.958    c-15.417,0-27.958,12.542-27.958,27.958C228.042,201.188,240.583,213.73,256,213.73z" style="" fill="#D0BD8C"></path>
<path d="M305.874,90.794c52.703,16.389,93.952,57.638,110.341,110.341c0.621,1.997,2.462,3.277,4.447,3.277    c0.459,0,0.925-0.068,1.386-0.211c2.457-0.765,3.83-3.376,3.066-5.834c-17.3-55.632-60.841-99.174-116.474-116.472    c-2.454-0.764-5.069,0.607-5.832,3.065C302.044,87.419,303.417,90.03,305.874,90.794z" style="" fill="#D0BD8C"></path>
<path d="M89.952,204.201c0.46,0.143,0.927,0.211,1.385,0.211c1.986,0,3.828-1.28,4.448-3.277    c16.612-53.424,58.539-94.874,112.154-110.88c2.466-0.736,3.869-3.332,3.132-5.798c-0.736-2.467-3.336-3.871-5.798-3.132    c-27.648,8.254-53.164,23.397-73.79,43.795c-20.615,20.387-36.036,45.716-44.597,73.248    C86.122,200.825,87.495,203.437,89.952,204.201z" style="" fill="#D0BD8C"></path>
<path d="M422.048,297.816c-2.456-0.768-5.068,0.608-5.833,3.066c-16.389,52.703-57.638,93.952-110.341,110.341    c-2.457,0.765-3.83,3.375-3.065,5.833c0.62,1.997,2.461,3.277,4.447,3.277c0.459,0,0.925-0.068,1.385-0.211    c55.633-17.3,99.174-60.841,116.474-116.474C425.878,301.192,424.505,298.581,422.048,297.816z" style="" fill="#D0BD8C"></path>
<path d="M207.939,411.763c-53.616-16.006-95.542-57.456-112.154-110.88c-0.764-2.457-3.375-3.828-5.833-3.066    c-2.458,0.764-3.83,3.376-3.066,5.833c8.561,27.533,23.982,52.861,44.598,73.248c20.625,20.397,46.142,35.541,73.79,43.795    c0.444,0.133,0.893,0.195,1.334,0.195c2.007,0,3.86-1.306,4.463-3.327C211.808,415.095,210.405,412.499,207.939,411.763z" style="" fill="#D0BD8C"></path>
<path d="M232.701,92.576h46.598c2.574,0,4.66-2.086,4.66-4.66V41.318c0-2.573-2.086-4.659-4.66-4.659h-46.598    c-2.573,0-4.66,2.086-4.66,4.659v46.598C228.042,90.49,230.128,92.576,232.701,92.576z" style="" fill="#D0BD8C"></path>
<path d="M106.887,251.009c0-15.416-12.542-27.959-27.958-27.959s-27.959,12.543-27.959,27.959    c0,15.417,12.542,27.959,27.959,27.959S106.887,266.426,106.887,251.009z" style="" fill="#D0BD8C"></path>
<path d="M259.295,401.487c-1.818-1.82-4.771-1.82-6.59,0l-32.95,32.949c-1.82,1.819-1.82,4.771,0,6.59    l32.95,32.949c0.91,0.91,2.103,1.365,3.295,1.365s2.386-0.455,3.295-1.365l32.949-32.949c1.82-1.819,1.82-4.771,0-6.59    L259.295,401.487z" style="" fill="#D0BD8C"></path>
<path d="M443.699,251.009l16.311-20.388c1.607-2.01,1.281-4.942-0.729-6.55c-2.01-1.608-4.942-1.282-6.549,0.728    l-15.001,18.751l-15-18.751c-1.608-2.01-4.543-2.335-6.55-0.728c-2.009,1.607-2.336,4.54-0.728,6.55l16.31,20.388l-16.31,20.389    c-1.608,2.01-1.281,4.941,0.728,6.549c0.859,0.688,1.887,1.021,2.908,1.021c1.367,0,2.722-0.599,3.642-1.749l15-18.75    l15.001,18.75c0.92,1.151,2.274,1.749,3.642,1.749c1.021,0,2.049-0.334,2.907-1.021c2.01-1.607,2.336-4.539,0.729-6.549    L443.699,251.009z" style="" fill="#D0BD8C"></path>
<rect x="120.866" y="246.35" width="18.639" height="18.639" style="" fill="#D0BD8C"></rect>
<rect x="148.825" y="246.35" width="18.639" height="18.639" style="" fill="#D0BD8C"></rect>
<rect x="353.855" y="246.35" width="18.64" height="18.639" style="" fill="#D0BD8C"></rect>
<rect x="381.814" y="246.35" width="18.639" height="18.639" style="" fill="#D0BD8C"></rect>
<rect x="251.34" y="358.184" width="18.639" height="18.64" style="" fill="#D0BD8C"></rect>
<rect x="251.34" y="106.556" width="18.639" height="18.639" style="" fill="#D0BD8C"></rect>
</g></g></svg>