<svg xmlns="http://www.w3.org/2000/svg" xmlns:xlink="http://www.w3.org/1999/xlink" version="1.1" x="0px" y="0px" viewBox="0 0 100 100" enable-background="new 0 0 100 100" xml:space="preserve" style="max-width:100%" height="100%">
<path d="M65.121,58.03l-5.047-0.544c-0.399-1.247-0.902-2.461-1.507-3.63l3.187-3.957c1.081-1.18,1.051-3.021-0.091-4.164  l-5.103-5.103c-0.569-0.568-1.326-0.882-2.129-0.882c-0.761,0-1.479,0.28-2.036,0.791l-3.956,3.187  c-1.169-0.604-2.383-1.108-3.631-1.508l-0.543-5.046c-0.069-1.601-1.393-2.881-3.009-2.881h-7.215c-1.617,0-2.94,1.28-3.009,2.881  l-0.543,5.046c-1.248,0.399-2.461,0.903-3.631,1.508l-3.956-3.187c-0.557-0.511-1.274-0.791-2.035-0.791  c-0.804,0-1.56,0.313-2.129,0.881l-5.103,5.104c-0.569,0.567-0.883,1.324-0.883,2.129c0,0.76,0.28,1.478,0.791,2.035l3.187,3.956  c-0.605,1.169-1.108,2.383-1.507,3.63l-5.047,0.544c-1.6,0.069-2.88,1.393-2.88,3.009v7.216c0,1.617,1.281,2.94,2.88,3.01  l5.047,0.543c0.399,1.247,0.902,2.462,1.507,3.631l-3.187,3.956c-0.511,0.558-0.791,1.274-0.791,2.035  c0,0.805,0.314,1.561,0.884,2.13l5.101,5.102c0.569,0.569,1.326,0.882,2.129,0.882c0.761,0,1.479-0.279,2.035-0.79l3.956-3.187  c1.169,0.604,2.383,1.108,3.631,1.507l0.543,5.047c0.069,1.6,1.393,2.88,3.009,2.88h7.215c1.617,0,2.94-1.28,3.009-2.88l0.543-5.047  c1.248-0.398,2.461-0.902,3.631-1.507l3.956,3.187c0.557,0.511,1.275,0.79,2.036,0.79c0.804,0,1.56-0.313,2.129-0.881l5.103-5.104  c0.569-0.568,0.883-1.324,0.883-2.129c0-0.761-0.28-1.478-0.791-2.035l-3.187-3.956c0.605-1.169,1.108-2.384,1.507-3.631  l5.047-0.543c1.6-0.069,2.88-1.393,2.88-3.01v-7.216C68.001,59.422,66.721,58.099,65.121,58.03z M66.04,68.254  c0,0.58-0.47,1.051-1.051,1.051l-6.436,0.693c-0.513,2.009-1.31,3.903-2.342,5.643l4.063,5.045c0.411,0.41,0.411,1.075,0,1.485  l-5.102,5.103c-0.206,0.205-0.474,0.308-0.743,0.308c-0.27,0-0.539-0.103-0.744-0.308l-5.044-4.063  c-1.739,1.032-3.634,1.829-5.643,2.342l-0.693,6.436c0,0.58-0.47,1.051-1.051,1.051h-7.215c-0.581,0-1.051-0.471-1.051-1.051  l-0.693-6.436c-2.009-0.513-3.904-1.31-5.643-2.342l-5.045,4.063c-0.205,0.205-0.474,0.308-0.743,0.308  c-0.269,0-0.537-0.103-0.743-0.308l-5.102-5.103c-0.41-0.41-0.41-1.075,0-1.485l4.063-5.045c-1.032-1.739-1.829-3.634-2.342-5.643  l-6.436-0.693c-0.581,0-1.051-0.471-1.051-1.051v-7.216c0-0.58,0.47-1.05,1.051-1.05l6.436-0.693  c0.513-2.009,1.31-3.904,2.342-5.643l-4.063-5.045c-0.41-0.411-0.41-1.076,0-1.485l5.102-5.104c0.206-0.204,0.474-0.307,0.743-0.307  c0.27,0,0.539,0.103,0.743,0.307l5.045,4.064c1.739-1.032,3.634-1.83,5.643-2.343l0.693-6.436c0-0.58,0.47-1.05,1.051-1.05h7.215  c0.581,0,1.051,0.47,1.051,1.05L43,43.741c2.009,0.513,3.904,1.311,5.643,2.343l5.044-4.064c0.205-0.204,0.474-0.307,0.744-0.307  c0.269,0,0.537,0.103,0.743,0.307l5.102,5.103c0.411,0.41,0.411,1.075,0,1.486l-4.063,5.045c1.032,1.738,1.829,3.634,2.342,5.643  l6.436,0.693c0.581,0,1.051,0.47,1.051,1.05V68.254z" style="" fill="currentColor"></path>
<path d="M37.648,50.326c-7.896,0-14.321,6.425-14.321,14.321s6.424,14.32,14.321,14.32s14.321-6.424,14.321-14.32  S45.544,50.326,37.648,50.326z M37.648,77.006c-6.815,0-12.359-5.544-12.359-12.359s5.544-12.359,12.359-12.359  c6.815,0,12.36,5.544,12.36,12.359S44.463,77.006,37.648,77.006z" style="" fill="currentColor"></path>
<path d="M91.003,19.022l-2.981-0.321c-0.236-0.737-0.534-1.454-0.891-2.146l1.883-2.336c0.639-0.697,0.621-1.785-0.053-2.461  l-3.015-3.013c-0.336-0.337-0.783-0.521-1.258-0.521c-0.449,0-0.874,0.165-1.203,0.467l-2.336,1.883  c-0.691-0.357-1.408-0.655-2.145-0.891l-0.322-2.981C78.643,5.756,77.86,5,76.906,5h-4.263c-0.955,0-1.737,0.756-1.777,1.701  l-0.322,2.981c-0.737,0.235-1.454,0.533-2.145,0.891l-2.337-1.883c-0.329-0.302-0.753-0.467-1.202-0.467  c-0.475,0-0.921,0.185-1.258,0.521l-3.014,3.015c-0.336,0.336-0.522,0.782-0.522,1.258c0,0.449,0.167,0.872,0.468,1.202l1.882,2.336  c-0.357,0.691-0.655,1.408-0.89,2.146l-2.981,0.321c-0.945,0.04-1.702,0.823-1.702,1.777v4.262c0,0.955,0.757,1.737,1.702,1.778  l2.981,0.321c0.235,0.737,0.533,1.454,0.89,2.146l-1.882,2.336c-0.302,0.329-0.468,0.753-0.468,1.202  c0,0.476,0.186,0.922,0.522,1.258l3.013,3.014c0.337,0.336,0.783,0.521,1.258,0.521c0.449,0,0.873-0.165,1.202-0.467l2.337-1.883  c0.69,0.357,1.408,0.655,2.145,0.891l0.322,2.981c0.04,0.945,0.822,1.701,1.777,1.701h4.263c0.954,0,1.736-0.756,1.777-1.701  l0.322-2.981c0.737-0.235,1.454-0.533,2.145-0.891l2.336,1.883c0.329,0.302,0.754,0.467,1.203,0.467  c0.475,0,0.921-0.186,1.257-0.521l3.014-3.015c0.336-0.336,0.522-0.782,0.522-1.258c0-0.449-0.167-0.873-0.468-1.202l-1.883-2.336  c0.357-0.691,0.655-1.408,0.891-2.146l2.981-0.321c0.945-0.041,1.702-0.823,1.702-1.778v-4.262  C92.705,19.845,91.948,19.062,91.003,19.022z M91.546,25.061c0,0.344-0.277,0.621-0.621,0.621l-3.801,0.409  c-0.303,1.188-0.774,2.307-1.384,3.334l2.401,2.98c0.242,0.242,0.242,0.635,0,0.877l-3.014,3.015  c-0.122,0.121-0.281,0.182-0.439,0.182c-0.159,0-0.318-0.061-0.439-0.182l-2.98-2.4c-1.027,0.609-2.147,1.08-3.333,1.384  l-0.41,3.801c0,0.344-0.278,0.621-0.62,0.621h-4.263c-0.343,0-0.62-0.277-0.62-0.621l-0.41-3.801  c-1.187-0.304-2.306-0.774-3.333-1.384l-2.98,2.4c-0.121,0.121-0.28,0.182-0.439,0.182s-0.317-0.061-0.439-0.182l-3.014-3.015  c-0.243-0.242-0.243-0.635,0-0.877l2.4-2.98c-0.609-1.027-1.081-2.146-1.383-3.334l-3.801-0.409c-0.344,0-0.621-0.277-0.621-0.621  v-4.262c0-0.343,0.277-0.621,0.621-0.621l3.801-0.408c0.303-1.188,0.774-2.307,1.383-3.334l-2.4-2.98  c-0.243-0.242-0.243-0.635,0-0.877l3.014-3.015c0.122-0.121,0.28-0.182,0.439-0.182s0.318,0.061,0.439,0.182l2.98,2.4  c1.027-0.609,2.146-1.08,3.333-1.384l0.41-3.801c0-0.344,0.277-0.621,0.62-0.621h4.263c0.342,0,0.62,0.277,0.62,0.621l0.41,3.801  c1.187,0.304,2.306,0.774,3.333,1.384l2.98-2.4c0.121-0.121,0.28-0.182,0.439-0.182c0.158,0,0.317,0.061,0.439,0.182l3.014,3.014  c0.242,0.243,0.242,0.636,0,0.878l-2.401,2.98c0.609,1.027,1.081,2.146,1.384,3.334l3.801,0.408c0.343,0,0.621,0.278,0.621,0.621  V25.061z" style="" fill="currentColor"></path>
<path d="M74.774,14.471c-4.665,0-8.459,3.795-8.459,8.459c0,4.665,3.795,8.46,8.459,8.46s8.459-3.795,8.459-8.46  C83.234,18.266,79.439,14.471,74.774,14.471z M74.774,30.232c-4.026,0-7.301-3.275-7.301-7.302c0-4.025,3.275-7.301,7.301-7.301  s7.301,3.275,7.301,7.301C82.076,26.957,78.8,30.232,74.774,30.232z" style="" fill="currentColor"></path>
</svg>