<svg xmlns="http://www.w3.org/2000/svg" xmlns:xlink="http://www.w3.org/1999/xlink" version="1.1" x="0px" y="0px" viewBox="0 0 48 48" enable-background="new 0 0 48 48" xml:space="preserve" style="max-width:100%" height="100%"><g style="" fill="currentColor"><g style="" fill="currentColor"><g style="" fill="currentColor"><path fill="currentColor" d="M16.3,26.4c-1.3-3.6-2-7.1-2.2-10.9c-0.1-2.7,11.5-1.5,13.1-1.5c3.3,0.1,9.4-1.2,8.9,3.6     C36,19.8,35.6,21.9,35,24c-0.2,0.5-4.1,7.6-4,7.8c-0.4-0.7-1.5-0.1-1.1,0.6c0,0.1,0.1,0.2,0.1,0.3c0.2,0.3,0.6,0.4,0.9,0.2     c4.8-3,7.9-14.1,6.7-19.3c0-0.2-0.2-0.4-0.4-0.4c-3-0.9-6.8-0.4-9.9-0.5c-3.8-0.1-9.6-1.1-13.3,0c-3.6,1.1,0.3,11.9,1.1,14     C15.4,27.5,16.6,27.1,16.3,26.4L16.3,26.4z" style="fill:#544000;"></path></g></g><g style="" fill="currentColor"><g style="" fill="currentColor"><path fill="currentColor" d="M37.5,18c1.6-1.5,4-1.3,4.2,1.2c0.1,1.6-0.8,3.2-1.8,4.4c-1.6,2-4.1,3.2-6.3,4.4     c-0.7,0.4-0.1,1.5,0.6,1.1c4-2.2,8.5-4.8,8.7-9.9c0.1-1.6-0.9-3-2.3-3.6c-1.5-0.7-3,0.6-4.1,1.5C36.1,17.7,37,18.6,37.5,18     L37.5,18z" style="fill:#544000;"></path></g></g><g style="" fill="currentColor"><g style="" fill="currentColor"><path fill="currentColor" d="M20.3,3.3c-0.1,0.4-0.5,0.8-0.8,1.1c-0.2,0.3-0.2,0.8-0.2,1.2c0.1,0.8,2.1,2.8,1.3,3.3     c-0.7,0.4-0.1,1.5,0.6,1.1c0.8-0.5,1.1-1.6,0.6-2.4c-0.4-0.7-1.3-1.4-1.4-2.2c0-0.5,0.9-1.1,1-1.7C21.7,2.9,20.5,2.5,20.3,3.3     L20.3,3.3z" style="fill:#544000;"></path></g></g><g style="" fill="currentColor"><g style="" fill="currentColor"><path fill="currentColor" d="M23.8,1.1c0.3,1.1,0.6,2.2-0.3,3.2c-0.2,0.3-0.6,0.7-0.6,1c0,0.6,0.2,0.9,0.5,1.4     c0.3,0.4,1.6,1.6,1.3,2.1c-0.5,0.7,0.6,1.3,1.1,0.6c0.9-1.3-0.8-2.7-1.5-3.7c-0.2-0.3,0.8-1.6,0.9-2c0.4-0.9,0-2.1-0.2-3.1     C24.8,0,23.6,0.4,23.8,1.1L23.8,1.1z" style="fill:#544000;"></path></g></g><g style="" fill="currentColor"><g style="" fill="currentColor"><path fill="currentColor" d="M27.8,4c0.3,1.1-0.9,2-0.7,3.1c0.2,1,1.4,1.8,1.4,2.8c0,0.8,1.3,0.8,1.3,0c0-1-0.7-1.7-1.2-2.5     c-0.5-0.7,0-1.5,0.3-2.2c0.2-0.5,0.2-1,0.1-1.6C28.8,2.9,27.6,3.3,27.8,4L27.8,4z" style="fill:#544000;"></path></g></g><g style="" fill="currentColor"><g style="" fill="currentColor"><path fill="currentColor" d="M11.8,28.3c0.5,3,0.5,7.4,2,10c0.8,1.3,4.9,1.7,6,2.2c1.6,0.7,2.4,2.1,4.1,1.1c1.5-0.9,2.6-1.9,4.1-2.6     c1.4-0.7,2.9-1.1,4.1-2.1c0.9-0.8-0.6-3.9-0.9-4.7c-0.7-1.9-2.6-3.1-4.3-3.9c-4.4-2.2-10.1-3.9-14.6-1c-0.7,0.4,0,1.5,0.6,1.1     c3.7-2.5,7.7-1.1,11.5,0.2c2.8,1,4.9,2.1,6,5.1c1.1,3-2.2,3.8-4.2,4.8c-1.2,0.6-3.1,2.6-4.8,1.6c-1.1-0.7-2.3-1.1-3.5-1.5     c-2.1-0.8-3.4-0.6-3.8-3.2c-0.4-2.4-0.8-4.9-1.3-7.3C12.8,27.2,11.6,27.5,11.8,28.3L11.8,28.3z" style="fill:#544000;"></path></g></g><g style="" fill="currentColor"><g style="" fill="currentColor"><path fill="currentColor" d="M11.9,28.3c-2.9,2.2-7.2,5-6.8,9.2c0.1,1.3,2.2,1.2,3,1.2c2.2,0,4.1-1,6.3-0.7c0.8,0.1,0.8-1.1,0-1.3     c-2.7-0.3-5.2,1.1-7.9,0.6c-1.4-0.3,1.6-4.3,1.9-4.6c1.2-1.2,2.7-2.3,4.1-3.3C13.1,28.9,12.5,27.8,11.9,28.3L11.9,28.3z" style="fill:#544000;"></path></g></g><g style="" fill="currentColor"><g style="" fill="currentColor"><path fill="currentColor" d="M23.4,42c1.6,1.3,2.7,2.8,3.8,4.5c0.6,0.9,1.5,1.2,2.6,1c1.3-0.2,1.9-1.6,2.2-2.7c0.5-2.2,0-4.9,0-7.1     c0-0.8-1.3-0.8-1.3,0c0,1.2,0.1,2.4,0.1,3.6c0,1.6,0.5,3.9-1.1,4.9c-1.2,0.8-2.5-2-3-2.6c-0.7-0.9-1.6-1.7-2.5-2.5     C23.7,40.6,22.8,41.5,23.4,42L23.4,42z" style="fill:#544000;"></path></g></g></g></svg>