<svg xmlns="http://www.w3.org/2000/svg" xmlns:xlink="http://www.w3.org/1999/xlink" version="1.1" x="0px" y="0px" viewBox="0 0 64 64" style="fill:#544000;" xml:space="preserve" height="100%"><g style="fill:#544000;"><path d="M56.977,49.774c-0.672-4.029-3.497-7.335-7.372-8.627L41,38.279V37h-2v1.872l-1.543,5.914L33.469,40h-2.938l-3.988,4.786   L25,38.872V37h-2v1.279l-8.604,2.868c-3.875,1.292-6.7,4.598-7.372,8.627L4.819,63h54.361L56.977,49.774z M42.258,40.807   l2.495,5.822l-3.042,2.028l2.112,4.227L37.511,61h-2.217l5.404-20.713L42.258,40.807z M35.452,52.472l-0.422-4.215l1.207-1.81   l0.599,0.719L35.452,52.472z M31.469,42h1.062l2.37,2.845l-1.932,2.898l1.029,10.299L33.227,61h-2.455l-0.772-2.958l1.029-10.299   l-1.932-2.898L31.469,42z M27.763,46.447l1.207,1.81l-0.422,4.215l-1.384-5.306L27.763,46.447z M23.302,40.287L28.706,61h-2.217   l-6.312-8.116l2.112-4.227l-3.042-2.028l2.495-5.822L23.302,40.287z M8.996,50.103c0.55-3.296,2.861-6.001,6.032-7.059l4.176-1.392   l-2.451,5.719l2.958,1.972l-1.888,3.773L23.955,61h-7.85l0.89-8.9l-1.99-0.199l-0.91,9.1H7.181L8.996,50.103z M49.905,61l-0.91-9.1   l-1.99,0.199l0.89,8.9h-7.85l6.132-7.884l-1.888-3.773l2.958-1.972l-2.451-5.719l4.176,1.392c3.171,1.058,5.482,3.763,6.032,7.059   L56.819,61H49.905z" style="fill:#544000;"></path><path d="M17,16.362v2.663c-1.207,0.914-2,2.348-2,3.974c0,2.566,1.95,4.662,4.442,4.944c0.51,1.755,1.452,3.364,2.78,4.692   l3.899,3.899c0.944,0.944,2.2,1.465,3.536,1.465h4.686c1.336,0,2.592-0.521,3.536-1.465l3.899-3.899   c1.328-1.328,2.269-2.938,2.78-4.692C47.05,27.662,49,25.566,49,23c0-1.627-0.793-3.061-2-3.974v-2.663   c3.862-1.657,6-3.896,6-6.362c0-5.047-9.225-9-21-9s-21,3.953-21,9C11,12.466,13.138,14.705,17,16.362z M17,23   c0-1.302,0.839-2.402,2-2.816v4.674c0,0.327,0.019,0.651,0.047,0.973C17.862,25.43,17,24.319,17,23z M40.364,31.222l-3.899,3.899   C35.898,35.688,35.145,36,34.343,36h-4.686c-0.802,0-1.556-0.312-2.122-0.879l-3.899-3.899c-1.699-1.7-2.636-3.96-2.636-6.364   v-5.618C23.454,18.682,27.389,18,32,18c4.602,0,8.542,0.683,11,1.241v5.617C43,27.262,42.063,29.522,40.364,31.222z M44.953,25.83   C44.981,25.509,45,25.185,45,24.858v-4.674c1.161,0.414,2,1.514,2,2.816C47,24.319,46.138,25.43,44.953,25.83z M32,3   c11.197,0,19,3.689,19,7c0,1.479-1.485,2.989-4.119,4.239l-0.566-0.188c-0.116-0.038-2.886-0.949-7.178-1.547l-0.275,1.98   c2.891,0.403,5.087,0.962,6.138,1.26v1.922C42.778,17.071,37.954,16,32,16s-10.778,1.071-13,1.667v-1.923   c1.048-0.297,3.237-0.855,6.138-1.259l-0.275-1.98c-4.293,0.598-7.062,1.509-7.178,1.547l-0.566,0.188   C14.485,12.989,13,11.479,13,10C13,6.689,20.803,3,32,3z" style="fill:#544000;"></path><path d="M27.424,12c0.774,1.763,2.531,3,4.576,3s3.802-1.237,4.576-3H39.5L44,6h-7v2h3l-1.5,2H37c0-2.757-2.243-5-5-5s-5,2.243-5,5   h-1.5L24,8h3V6h-7l4.5,6H27.424z M32,7c1.654,0,3,1.346,3,3s-1.346,3-3,3s-3-1.346-3-3S30.346,7,32,7z" style="fill:#544000;"></path></g></svg>