<svg xmlns="http://www.w3.org/2000/svg" xmlns:xlink="http://www.w3.org/1999/xlink" version="1.1" x="0px" y="0px" viewBox="0 0 100 100" enable-background="new 0 0 100 100" xml:space="preserve" style="max-width:100%" height="100%"><g style="" fill="currentColor"><path fill="none" d="M44.493,62.5c0.856-0.112,1.702,0.377,2.249,1.045c0.547,0.668,0.851,1.497,1.146,2.309   c1.037,2.859,1.747,5.902,4.335,7.851c2.093,1.576,4.939,2.359,7.542,2.365c2.788,0.076,5.671-0.249,8.416-0.729   c1.217-0.213,2.447-0.532,3.471-1.249c3.424-2.399,2.73-6.727,2.533-10.384c-0.091-1.692-0.289-3.371-0.555-5.044   c-0.364-2.289-0.48-5.563-3.018-6.566c-1.669-0.66-3.481-0.899-5.261-1.018c-9.121-0.612-18.22-0.867-27.361-0.704   c-3.894,0.07-8.091-0.256-11.936,0.446c-3.341,0.61-6.592,0.856-9.666,2.529c-1.614,0.878-1.76,1.948-2.159,3.621   c-1.272,5.327-1.342,10.478,0.311,15.773c0.651,2.084,2.448,2.48,4.439,2.513c2.872,0.048,5.805,0.639,8.663,0.422   c3.008-0.229,5.972-0.879,8.787-1.971c0.382-0.148,0.765-0.306,1.094-0.551c0.474-0.352,0.805-0.861,1.097-1.373   c1.448-2.54,2.236-5.195,3.797-7.673C42.9,63.345,43.595,62.617,44.493,62.5z M40.151,65.209c-0.441,1.169-0.876,2.358-1.571,3.405   c-0.624,0.94-1.384,1.76-2.261,2.466c-1.82,1.464-4.013,2.394-6.288,2.88c-2.753,0.588-5.579,0.609-8.381,0.598   c-0.861-0.003-1.771,0-2.626-0.193c-0.081,0.066-0.186,0.099-0.309,0.07c-0.764-0.176-1.269-0.514-1.702-1.134   c-0.16-0.159-0.306-0.331-0.433-0.513c-0.14-0.2-0.259-0.405-0.295-0.651c-0.018-0.123-0.007-0.234,0.009-0.343   c-0.092-0.286-0.167-0.577-0.229-0.866c-0.4-1.877-0.291-3.874-0.234-5.778c0.068-2.285,0.331-4.551,0.598-6.82   c0.103-0.873,0.201-1.78,0.52-2.606c0.182-0.47,0.474-1.07,0.899-1.432c0.028-0.084,0.077-0.163,0.151-0.229   c0.33-0.293,0.661-0.598,1.056-0.794c0.392-0.194,0.823-0.338,1.235-0.485c0.857-0.304,1.734-0.539,2.628-0.707   c1.753-0.33,3.543-0.489,5.325-0.552c7.085-0.252,14.179,0.114,21.256,0.4c3.538,0.143,7.075,0.315,10.612,0.494   c1.702,0.086,3.405,0.231,5.091,0.482c1.316,0.196,3.296,0.262,4.454,0.953c1.536,0.917,2.495,3.813,2.611,5.498   c0.058,0.844,0.1,1.676,0.189,2.518c0.176,1.663,0.195,3.357,0.176,5.029c-0.009,0.827-0.034,1.64-0.13,2.462   c-0.092,0.79-0.143,1.671-0.486,2.398c-0.124,0.263-0.464,0.397-0.736,0.343c-0.089,0.088-0.183,0.174-0.284,0.254   c-1.137,0.902-2.617,1.16-4.007,1.406c-2.692,0.475-5.536,0.755-8.273,0.669c-1.284-0.04-2.566-0.231-3.733-0.785   c-1.036-0.492-1.948-1.245-2.688-2.118c-1.608-1.897-2.49-4.207-3.464-6.461c-0.502-1.163-1.061-2.292-1.78-3.338   c-0.434-0.631-1.048-1.324-1.777-1.607c-0.053,0.034-0.111,0.059-0.174,0.072c-1.208,0.241-2.25,0.66-3.112,1.574   C41.08,62.729,40.61,63.993,40.151,65.209z" style=""></path><path fill="none" d="M49.484,62.38c1.105,2.095,1.766,4.396,2.947,6.453c0.544,0.948,1.201,1.836,2.043,2.542   c0.867,0.726,1.937,1.158,3.028,1.425c2.606,0.636,5.458,0.117,8.06-0.287c1.232-0.191,2.572-0.335,3.738-0.796   c0.674-0.266,1.396-0.822,1.721-1.515c0.044-0.277,0.091-0.553,0.127-0.831c0.396-3.132,0.123-6.252-0.534-9.35   c-0.276-1.302-0.607-2.611-1.051-3.868c-0.399-1.129-1.132-1.276-2.315-1.454c-0.909-0.137-1.819-0.224-2.737-0.265   c-1.888-0.085-3.774-0.129-5.661-0.247c-3.509-0.219-7.019-0.431-10.531-0.604c-3.501-0.173-7.003-0.228-10.508-0.279   c-3.391-0.05-6.79-0.069-10.18,0.069c-1.559,0.064-3.119,0.188-4.652,0.487c-0.799,0.156-1.595,0.335-2.373,0.575   c-0.323,0.1-0.638,0.229-0.961,0.328c-0.248,0.076-0.505,0.122-0.762,0.166c-0.145,0.211-0.336,0.39-0.473,0.613   c-0.19,0.308-0.311,0.657-0.411,1.003c-0.229,0.793-0.294,1.635-0.384,2.452c-0.214,1.949-0.247,3.921-0.29,5.881   c-0.038,1.726-0.102,3.499,0.152,5.212c0.091,0.613,0.257,1.173,0.485,1.704c0.138,0.159,0.288,0.297,0.469,0.413   c0.502,0.322,1.102,0.462,1.69,0.508c1.418,0.113,2.874,0.049,4.294,0.011c4.407-0.117,9.472-0.912,12.321-4.676   c1.407-1.859,1.735-4.257,2.923-6.232c0.853-1.419,2.565-3.059,4.318-2.997c0.973-0.438,2.167-0.213,3.03,0.412   C48.1,60.027,48.863,61.202,49.484,62.38z" style=""></path><path fill="none" d="M45.412,64.953c0.199,1.619,0.035,3.32,0.005,4.928c-0.031,1.649,0.03,3.339-0.116,4.991   c0.33-0.335,0.616-0.73,0.805-0.965c0.596-0.745,1.099-1.576,1.484-2.448c0.092-0.21,0.245-0.343,0.419-0.414   C47.551,69.865,47.155,65.767,45.412,64.953z" style=""></path><path fill="none" d="M42.321,68.042c-0.573,1.261-0.74,2.078-1.288,3.112c0.445,0.746,0.686,1.577,1.123,2.333   c0.354,0.612,1.017,1.628,1.759,1.92c-0.14-1.816-0.001-3.67,0.034-5.485c0.031-1.642-0.058-3.361,0.204-5   c-0.131,0.044-0.266,0.102-0.407,0.175C43.004,65.484,42.653,67.312,42.321,68.042z" style=""></path><path fill="none" d="M46.431,83.177c-0.01-0.052-0.019-0.106-0.023-0.163c-0.027-0.401-0.089-0.814-0.064-1.213   c0.022-0.348,0.094-0.7,0.141-1.046c0.021-0.151,0.101-0.279,0.21-0.374c-0.308-0.01-0.618,0-0.926,0.004   c-0.64,0.008-1.282,0.023-1.92,0.078c-0.668,0.058-1.334,0.171-1.981,0.35c-0.321,0.089-0.616,0.213-0.924,0.334   c-0.02,0.008-0.049,0.037-0.078,0.068c0.376,0.074,0.664,0.427,0.56,0.798c0.387,0.731,0.589,1.622,0.702,2.479   c0.526-0.384,1.166-0.664,1.69-0.874C44.566,83.318,45.541,83.103,46.431,83.177z" style=""></path><path fill="none" d="M83.677,46.667c-0.475-3.171-1.012-6.335-1.555-9.495c-0.274-1.594-0.562-3.185-0.864-4.773   c-0.202-1.063-0.438-2.092-0.55-3.143c-0.586,0.239-1.168,0.45-1.804,0.608c-1.179,0.293-1.404,0.205-1.27,1.441   c0.11,1.018,0.258,2.032,0.41,3.044c0.295,1.953,0.641,3.897,0.976,5.843c0.561,3.256,0.679,6.682,1.357,9.896   c1.341,6.353,1.973,13.047,2.4,19.542c0.182,2.765,0.151,5.633-0.655,8.308c-0.804,2.665-2.364,4.91-4.535,6.64   c-4.633,3.693-10.74,4.25-16.434,4.63c-2.948,0.197-6.104,0.466-8.944-0.535c-1.764-0.622-3.721-1.772-4.745-3.426   c-0.042,0.02-0.086,0.038-0.131,0.052c-0.465,0.142-0.971,0.104-1.452,0.167c-0.436,0.057-0.876,0.176-1.295,0.31   c-0.748,0.24-1.431,0.882-2.19,1.078c0.147,0.412,0.323,0.814,0.557,1.196c0.51,0.833,1.193,1.519,1.959,2.118   c1.665,1.304,3.744,1.837,5.809,2.088c2.077,0.253,4.172,0.214,6.26,0.189c2.083-0.025,4.167-0.081,6.245-0.239   c4.076-0.31,8.141-1.025,11.897-2.695c3.197-1.421,5.955-3.704,7.974-6.558c1.337-1.89,1.856-3.857,2.535-6.021   c1.129-3.599,0.551-7.831,0.272-11.522C85.431,59.141,84.608,52.883,83.677,46.667z" style=""></path><path fill="none" d="M81.111,27.135c-0.046-0.159-0.09-0.319-0.138-0.478C80.798,26.083,77.22,7.661,77.13,7.074   c-0.001,0-0.002,0.001-0.004,0.001c-1.16,0.293-2.236,0.808-3.398,1.103c-0.55,0.139-1.128,0.305-1.69,0.381   c-0.098,0.013-0.188,0.021-0.275,0.026c0.209,0.551,3.31,19.139,3.396,19.857c0.432-0.168,0.91-0.264,1.344-0.375   c0.545-0.139,1.097-0.258,1.645-0.384C79.141,27.454,80.115,27.289,81.111,27.135z" style=""></path><path d="M40.369,72.219c0.096,0.888,0.539,1.769,1.01,2.493c0.618,0.953,1.505,2.08,2.715,2.224   c1.253,0.149,2.221-0.893,2.951-1.769c0.683-0.82,1.242-1.709,1.702-2.663c0.949,1.518,2.335,2.744,3.91,3.611   c2.37,1.305,5.079,1.749,7.76,1.743c1.469-0.003,2.934-0.135,4.392-0.304c1.48-0.172,4.114-0.285,5.571-0.601   c6.303-1.365,5.971-7.765,5.694-13.271c-0.086-1.715-0.267-3.429-0.547-5.123c-0.415-2.507-0.268-5.681-2.562-7.347   c-1.619-1.176-3.696-1.645-5.641-1.937c-2.199-0.331-4.438-0.45-6.654-0.607c-2.377-0.168-4.756-0.284-7.137-0.369   c-4.719-0.169-9.443-0.209-14.164-0.12c-4.384,0.083-8.817,0.274-13.169,0.832c-1.594,0.204-3.206,0.587-4.807,0.843   c-1.605,0.257-3.23,0.52-4.722,1.167c-5.673,2.462-5.176,9.229-4.86,14.327c0.149,2.402,0.097,4.85,0.612,7.213   c0.611,2.804,2.317,3.626,5.027,4.207c5.344,1.146,11.397,1.28,16.648-0.364C36.509,75.65,38.872,74.301,40.369,72.219z    M43.949,69.922c-0.035,1.815-0.174,3.669-0.034,5.485c-0.742-0.293-1.404-1.308-1.759-1.92c-0.437-0.756-0.678-1.587-1.123-2.333   c0.548-1.034,0.715-1.851,1.288-3.112c0.331-0.73,0.682-2.558,1.424-2.944c0.141-0.074,0.277-0.131,0.407-0.175   C43.891,66.561,43.98,68.28,43.949,69.922z M47.589,71.459c-0.384,0.872-0.888,1.703-1.484,2.448   c-0.188,0.236-0.475,0.63-0.805,0.965c0.145-1.653,0.084-3.343,0.116-4.991c0.031-1.608,0.195-3.309-0.005-4.928   c1.743,0.814,2.14,4.912,2.596,6.092C47.834,71.116,47.681,71.249,47.589,71.459z M37.523,73.158   c-0.329,0.244-0.712,0.402-1.094,0.551c-2.815,1.091-5.779,1.742-8.787,1.971c-2.858,0.217-5.79-0.374-8.663-0.422   c-1.991-0.033-3.788-0.43-4.439-2.513c-1.653-5.294-1.583-10.446-0.311-15.773c0.399-1.673,0.545-2.742,2.159-3.621   c3.073-1.673,6.324-1.919,9.666-2.529c3.845-0.702,8.042-0.376,11.936-0.446c9.14-0.163,18.24,0.092,27.361,0.704   c1.78,0.119,3.592,0.359,5.261,1.018c2.538,1.003,2.654,4.277,3.018,6.566c0.266,1.673,0.464,3.352,0.555,5.044   c0.197,3.656,0.892,7.985-2.533,10.384c-1.025,0.718-2.255,1.037-3.471,1.249c-2.745,0.48-5.628,0.805-8.416,0.729   c-2.604-0.006-5.449-0.789-7.542-2.365c-2.588-1.949-3.297-4.992-4.335-7.851c-0.295-0.812-0.599-1.641-1.146-2.309   c-0.547-0.668-1.393-1.157-2.249-1.045c-0.898,0.117-1.594,0.845-2.076,1.612c-1.561,2.478-2.35,5.133-3.797,7.673   C38.327,72.297,37.996,72.805,37.523,73.158z" style="fill:#544000;"></path><path d="M45.273,60.122c0.729,0.284,1.343,0.977,1.777,1.607c0.719,1.045,1.277,2.175,1.78,3.338   c0.974,2.254,1.856,4.564,3.464,6.461c0.74,0.872,1.652,1.626,2.688,2.118c1.168,0.555,2.449,0.745,3.733,0.785   c2.737,0.086,5.58-0.194,8.273-0.669c1.39-0.245,2.871-0.503,4.007-1.406c0.101-0.08,0.195-0.166,0.284-0.254   c0.272,0.054,0.611-0.08,0.736-0.343c0.343-0.727,0.394-1.608,0.486-2.398c0.096-0.823,0.121-1.635,0.13-2.462   c0.019-1.672,0-3.365-0.176-5.029c-0.089-0.842-0.131-1.674-0.189-2.518c-0.115-1.685-1.075-4.581-2.611-5.498   c-1.158-0.691-3.138-0.757-4.454-0.953c-1.686-0.251-3.389-0.396-5.091-0.482c-3.537-0.179-7.074-0.351-10.612-0.494   c-7.077-0.285-14.171-0.652-21.256-0.4c-1.782,0.063-3.571,0.222-5.325,0.552c-0.894,0.168-1.771,0.403-2.628,0.707   c-0.412,0.146-0.843,0.291-1.235,0.485c-0.395,0.196-0.727,0.5-1.056,0.794c-0.073,0.065-0.123,0.144-0.151,0.229   c-0.425,0.361-0.717,0.962-0.899,1.432c-0.319,0.826-0.418,1.733-0.52,2.606c-0.267,2.268-0.53,4.535-0.598,6.82   c-0.057,1.904-0.165,3.901,0.234,5.778c0.062,0.289,0.137,0.58,0.229,0.866c-0.015,0.108-0.027,0.22-0.009,0.343   c0.036,0.246,0.155,0.451,0.295,0.651c0.128,0.182,0.273,0.354,0.433,0.513c0.433,0.62,0.938,0.958,1.702,1.134   c0.123,0.028,0.229-0.004,0.309-0.07c0.854,0.193,1.764,0.19,2.626,0.193c2.802,0.011,5.628-0.01,8.381-0.598   c2.275-0.486,4.468-1.416,6.288-2.88c0.878-0.706,1.638-1.526,2.261-2.466c0.695-1.047,1.13-2.236,1.571-3.405   c0.459-1.217,0.929-2.48,1.836-3.442c0.862-0.913,1.904-1.333,3.112-1.574C45.162,60.181,45.22,60.156,45.273,60.122z    M43.977,58.823c-1.753-0.062-3.465,1.578-4.318,2.997c-1.188,1.976-1.516,4.374-2.923,6.232   c-2.849,3.764-7.914,4.559-12.321,4.676c-1.421,0.038-2.876,0.102-4.294-0.011c-0.589-0.047-1.188-0.186-1.69-0.508   c-0.181-0.116-0.331-0.254-0.469-0.413c-0.227-0.531-0.394-1.091-0.485-1.704c-0.254-1.713-0.19-3.487-0.152-5.212   c0.043-1.96,0.076-3.932,0.29-5.881c0.09-0.817,0.155-1.659,0.384-2.452c0.1-0.346,0.221-0.695,0.411-1.003   c0.138-0.223,0.328-0.402,0.473-0.613c0.258-0.044,0.514-0.09,0.762-0.166c0.323-0.099,0.637-0.228,0.961-0.328   c0.779-0.241,1.574-0.419,2.373-0.575c1.534-0.299,3.093-0.424,4.652-0.487c3.39-0.138,6.789-0.119,10.18-0.069   c3.505,0.051,7.006,0.106,10.508,0.279c3.512,0.174,7.022,0.385,10.531,0.604c1.887,0.118,3.773,0.162,5.661,0.247   c0.918,0.041,1.828,0.129,2.737,0.265c1.183,0.178,1.916,0.325,2.315,1.454c0.444,1.256,0.775,2.565,1.051,3.868   c0.657,3.097,0.93,6.217,0.534,9.35c-0.035,0.278-0.082,0.554-0.127,0.831c-0.326,0.693-1.047,1.249-1.721,1.515   c-1.167,0.46-2.506,0.604-3.738,0.796c-2.602,0.404-5.454,0.923-8.06,0.287c-1.09-0.266-2.161-0.698-3.028-1.425   c-0.842-0.706-1.499-1.594-2.043-2.542c-1.181-2.057-1.842-4.358-2.947-6.453c-0.621-1.178-1.384-2.353-2.478-3.145   C46.143,58.61,44.949,58.385,43.977,58.823z" style="fill:#544000;"></path><path d="M88.319,71.274c-0.088-1.605-0.19-3.209-0.307-4.812c-0.235-3.21-0.49-6.421-0.804-9.624   c-0.62-6.317-1.488-12.643-2.723-18.87c-0.353-1.78-0.725-3.556-1.115-5.327c-0.299-1.356-0.534-2.729-1.012-4.022   c0.09-0.066,0.162-0.144,0.217-0.229c0.248-0.116,0.443-0.354,0.482-0.67c0.073-0.599-3.987-21.992-4.768-22.598   c-0.011-0.02-0.021-0.041-0.032-0.061c-0.221-0.429-7.494,1.588-7.722,1.892c-0.249-0.047-0.519,0.076-0.621,0.33   c-0.39,0.968,3.647,21.731,4.316,22.83c0.11,0.18,0.294,0.231,0.471,0.195c0.086,0.037,0.181,0.064,0.286,0.077   c0.304,0.039,0.623,0.032,0.947-0.004c0.017,0.318,0.043,0.636,0.089,0.952c0.115,0.782,0.223,1.565,0.343,2.347   c0.233,1.516,0.467,3.032,0.69,4.55c0.456,3.099,0.804,6.213,1.127,9.328c0.651,6.269,1.527,12.512,2.139,18.788   c0.478,4.904,1.085,10.688-2.305,14.764c-3.395,4.082-8.886,5.242-13.918,5.708c-1.646,0.152-3.299,0.274-4.95,0.364   c-1.634,0.089-3.297,0.125-4.915-0.162c-1.313-0.233-2.664-0.558-3.797-1.283c-0.888-0.568-1.669-1.357-2.382-2.153   c0.145-0.184,0.225-0.44,0.182-0.764c-0.042-0.316-0.065-0.642-0.125-0.955c1.266-0.391,1.343-2.284,0.11-3.001   c-0.721-0.419-1.599-0.351-2.401-0.344c-0.843,0.008-1.684,0.041-2.522,0.133c-1.386,0.154-3.513,0.41-4.161,1.863   c-0.283,0.635-0.204,1.405,0.32,1.892c0.118,0.11,0.249,0.191,0.387,0.248c-0.095,1.022,0.111,2.178,0.33,3.113   c0.009,0.037,0.019,0.073,0.031,0.107c-0.149,1.972,1.021,3.912,2.324,5.302c1.463,1.56,3.422,2.543,5.46,3.116   C50.263,94.934,52.653,95.003,55,95c2.243-0.003,4.489-0.04,6.729-0.159c8.355-0.443,17.393-2.475,22.703-9.526   c2.598-3.451,3.763-7.402,3.913-11.571C88.374,72.928,88.364,72.104,88.319,71.274z M76.503,28.067   c-0.434,0.111-0.911,0.207-1.344,0.375c-0.085-0.718-3.186-19.306-3.396-19.857c0.087-0.005,0.177-0.012,0.275-0.026   c0.561-0.076,1.14-0.242,1.69-0.381c1.162-0.295,2.238-0.81,3.398-1.103c0.001,0,0.002-0.001,0.004-0.001   c0.09,0.586,3.668,19.009,3.843,19.583c0.048,0.159,0.092,0.32,0.138,0.478c-0.996,0.153-1.97,0.319-2.962,0.547   C77.6,27.809,77.049,27.927,76.503,28.067z M41.426,82.013c0.104-0.372-0.183-0.724-0.56-0.798c0.029-0.031,0.058-0.06,0.078-0.068   c0.308-0.121,0.603-0.245,0.924-0.334c0.647-0.179,1.313-0.292,1.981-0.35c0.638-0.055,1.279-0.071,1.92-0.078   c0.308-0.004,0.618-0.014,0.926-0.004c-0.109,0.095-0.189,0.223-0.21,0.374c-0.047,0.346-0.119,0.698-0.141,1.046   c-0.026,0.399,0.036,0.813,0.064,1.213c0.004,0.058,0.012,0.111,0.023,0.163c-0.889-0.075-1.865,0.14-2.613,0.441   c-0.524,0.21-1.164,0.49-1.69,0.874C42.014,83.635,41.812,82.744,41.426,82.013z M85.631,76.933   c-0.679,2.163-1.198,4.131-2.535,6.021c-2.019,2.854-4.778,5.137-7.974,6.558c-3.756,1.67-7.82,2.386-11.897,2.695   c-2.078,0.158-4.162,0.214-6.245,0.239c-2.088,0.025-4.184,0.064-6.26-0.189c-2.064-0.251-4.143-0.785-5.809-2.088   c-0.766-0.6-1.449-1.285-1.959-2.118c-0.234-0.383-0.41-0.784-0.557-1.196c0.76-0.196,1.442-0.838,2.19-1.078   c0.419-0.134,0.859-0.253,1.295-0.31c0.481-0.063,0.987-0.024,1.452-0.167c0.046-0.014,0.089-0.032,0.131-0.052   c1.024,1.654,2.981,2.803,4.745,3.426c2.84,1.002,5.997,0.732,8.944,0.535c5.693-0.38,11.801-0.937,16.434-4.63   c2.171-1.731,3.732-3.975,4.535-6.64c0.806-2.674,0.837-5.543,0.655-8.308c-0.427-6.495-1.059-13.189-2.4-19.542   c-0.678-3.214-0.796-6.64-1.357-9.896c-0.335-1.946-0.682-3.891-0.976-5.843c-0.153-1.012-0.3-2.026-0.41-3.044   c-0.134-1.236,0.091-1.148,1.27-1.441c0.635-0.158,1.218-0.369,1.804-0.608c0.111,1.052,0.347,2.081,0.55,3.143   c0.302,1.588,0.59,3.179,0.864,4.773c0.543,3.16,1.08,6.324,1.555,9.495c0.931,6.216,1.755,12.474,2.227,18.744   C86.182,69.101,86.76,73.334,85.631,76.933z" style="fill:#544000;"></path></g></svg>