<svg xmlns="http://www.w3.org/2000/svg" xmlns:xlink="http://www.w3.org/1999/xlink" version="1.1" x="0px" y="0px" viewBox="0 0 100 100" style="enable-background:new 0 0 100 100;max-width:100%" xml:space="preserve" height="100%"><style type="text/css" style="" fill="currentColor">
	.st0{fill:none;stroke:#000000;stroke-width:2;stroke-linecap:round;stroke-linejoin:round;stroke-miterlimit:10;}
	.st1{fill:none;stroke:#000000;stroke-width:2;stroke-linecap:round;stroke-miterlimit:10;}
	.st2{fill:none;stroke:#000000;stroke-width:2;stroke-miterlimit:10;}
</style><path d="M18.3,59.7v23.1h-6.4c-0.6,0-1,0.4-1,1s0.4,1,1,1h14.7c0.6,0,1-0.4,1-1s-0.4-1-1-1h-6.3V59.7c5-1.2,8.8-11.5,8.8-24.5  c0-3.9-0.4-13.7-1.1-17.6c-0.1-0.5-0.5-0.8-1-0.8H11.6c-0.5,0-0.9,0.3-1,0.8c-0.7,3.8-1.1,13.6-1.1,17.6  C9.5,48.1,13.3,58.4,18.3,59.7z M26.2,18.8c0.5,3.6,0.8,10.5,0.9,14.6c-0.7,0.4-1.5,0.7-2.7,0.7c-1.8,0-2.8-0.7-3.9-1.6  c-1.2-0.9-2.6-2-5.1-2c-1.7,0-2.9,0.5-3.8,1.1c0.1-4.1,0.4-9.7,0.8-12.8H26.2z M11.5,34.1c1.1-0.9,2.1-1.6,3.9-1.6  c1.8,0,2.8,0.7,3.9,1.6c1.2,0.9,2.6,2,5.1,2c1.1,0,1.9-0.2,2.7-0.5C27,48.7,23,57.8,19.3,57.8c-3.7,0-7.8-9.3-7.8-22.6  C11.5,34.9,11.5,34.5,11.5,34.1z" style="fill:#544000;"></path><path d="M77.7,57.7v25.1h-5.6c-0.6,0-1,0.4-1,1s0.4,1,1,1h13.3c0.6,0,1-0.4,1-1s-0.4-1-1-1h-5.6V57.7c3.6-0.2,6.5-1.6,8.5-4.3  c6.8-9.1,1.3-29.2,1.1-30.1c-0.1-0.4-0.5-0.7-1-0.7c0,0,0,0,0,0l-9.5,0c-0.1,0-0.1,0-0.2,0c-0.1,0-0.1,0-0.2,0c0,0,0,0,0,0l-9.5,0  c-0.4,0-0.8,0.3-1,0.7c-0.2,0.9-5.7,21.1,1.2,30.1C71.3,56.1,74.1,57.5,77.7,57.7z M69.8,24.7l8.7,0c0.1,0,0.1,0,0.2,0  c0.1,0,0.1,0,0.2,0c0,0,0,0,0,0l8.7,0c0.2,1,0.7,2.9,1.1,5.3c-0.9,0.4-2,0.7-3.8,0.7c-2.4,0-3.6-0.6-5-1.3c-1.4-0.7-3-1.5-5.9-1.5  c-2.4,0-3.9,0.5-5.1,1.1C69.2,27.1,69.6,25.5,69.8,24.7z M68.5,31.4L68.5,31.4l0.5-0.2c1.3-0.7,2.6-1.3,5-1.3c2.4,0,3.6,0.6,5,1.3  c1.4,0.7,3,1.5,5.9,1.5c1.8,0,3.1-0.3,4.1-0.7c0.9,6.5,1.3,15.4-2.3,20.3c-1.8,2.4-4.3,3.5-7.7,3.5c0,0-0.1,0-0.1,0c0,0-0.1,0-0.1,0  c0,0,0,0-0.1,0c0,0,0,0-0.1,0c0,0,0,0-0.1,0c-3.4,0-5.9-1.1-7.7-3.5C67,47.3,67.5,37.9,68.5,31.4z" style="fill:#544000;"></path><path d="M53,44.7l-11.3-5.4c-0.4-0.2-0.9-0.1-1.2,0.3c-0.3,0.4-0.6,0.8-0.8,1.3c-0.9,1.8-1,3.8-0.4,5.7s2,3.4,3.7,4.2  c1,0.5,2.1,0.8,3.2,0.8c0.8,0,1.6-0.1,2.4-0.4c1.9-0.6,3.4-2,4.2-3.7c0.2-0.5,0.4-1,0.5-1.5C53.7,45.3,53.4,44.9,53,44.7z   M51.2,46.4c-0.6,1.3-1.7,2.3-3.1,2.7s-2.8,0.4-4.1-0.3c-1.3-0.6-2.3-1.7-2.7-3.1c-0.5-1.4-0.4-2.8,0.3-4.1c0-0.1,0.1-0.2,0.1-0.3  l9.7,4.7C51.3,46.2,51.3,46.3,51.2,46.4z" style="fill:#544000;"></path><path d="M44.1,46.3c-0.2,0.5,0,1.1,0.5,1.3c0.1,0.1,0.3,0.1,0.4,0.1c0.4,0,0.7-0.2,0.9-0.6l0.3-0.7c0.2-0.5,0-1.1-0.5-1.3  c-0.5-0.2-1.1,0-1.3,0.5L44.1,46.3z" style="fill:#544000;"></path><path d="M41.6,44.8c0.1,0.5,0.5,0.8,1,0.8c0.1,0,0.1,0,0.2,0l1-0.2c0.5-0.1,0.9-0.6,0.8-1.2c-0.1-0.5-0.6-0.9-1.2-0.8l-1,0.2  C41.8,43.8,41.5,44.3,41.6,44.8z" style="fill:#544000;"></path><path d="M47.3,47.8c0.2,0.4,0.5,0.6,0.9,0.6c0.2,0,0.3,0,0.4-0.1c0.5-0.2,0.7-0.8,0.4-1.3l-0.4-0.9c-0.2-0.5-0.8-0.7-1.3-0.4  c-0.5,0.2-0.7,0.8-0.4,1.3L47.3,47.8z" style="fill:#544000;"></path><path d="M47,54.7v27.9h-5.7c-0.6,0-1,0.4-1,1s0.4,1,1,1h13.3c0.6,0,1-0.4,1-1s-0.4-1-1-1H49V54.7c6.2-0.2,10.4-2,12.6-5.5  c4.2-6.8-0.9-17.2-1.2-17.7c-0.2-0.3-0.5-0.5-0.9-0.5H48.2c-0.1,0-0.1,0-0.2,0c-0.1,0-0.1,0-0.2,0H36.4c-0.4,0-0.7,0.2-0.9,0.5  c-0.2,0.4-5.4,10.8-1.2,17.7C36.5,52.7,40.8,54.6,47,54.7z M59.9,48.1c-1.9,3.1-5.8,4.6-11.7,4.6c0,0-0.1,0-0.1,0c0,0-0.1,0-0.1,0  s-0.1,0-0.1,0c0,0-0.1,0-0.1,0c-5.9,0-9.8-1.6-11.7-4.6c-1.7-2.8-1.5-6.4-0.9-9.4l0,0l0.6-0.3c1.7-0.7,3.3-1.3,6.3-1.3  c3,0,4.6,0.6,6.3,1.3c1.8,0.7,3.6,1.5,7,1.5c2.5,0,4.1-0.4,5.4-0.8C61.4,42.1,61.5,45.5,59.9,48.1z M37,32.9h10.7c0.1,0,0.1,0,0.2,0  c0.1,0,0.1,0,0.2,0h10.7c0.3,0.8,1,2.3,1.5,4.2c-1.2,0.4-2.6,0.8-4.9,0.8c-3,0-4.6-0.6-6.3-1.3c-1.8-0.7-3.6-1.5-7-1.5  c-3,0-4.8,0.6-6.4,1.2C36.2,34.8,36.7,33.6,37,32.9z" style="fill:#544000;"></path></svg>