<svg xmlns="http://www.w3.org/2000/svg" xmlns:xlink="http://www.w3.org/1999/xlink" version="1.1" x="0px" y="0px" viewBox="0 0 52 52" enable-background="new 0 0 52 52" xml:space="preserve" style="max-width:100%" height="100%"><g style="fill:#544000;"><g style="fill:#544000;"><path d="M38.0000191,9H25.9999809V2h12.0000381V9z M27.9999809,7h8.0000381V4h-8.0000381V7z" style="fill:#544000;"></path></g><g style="fill:#544000;"><path d="M41.0000153,50H10.99998c-1.1029997,0-2-0.8974991-2-2V18.9580002c0-1.3125,0.7216997-2.5058994,1.8837996-3.1153002    L27.7543793,7h8.5747414l5.2441368,3.8768997c0.8935509,0.6602001,1.4267616,1.7168007,1.4267616,2.8281002V48    C43.0000191,49.1025009,42.1030426,50,41.0000153,50z M28.2465801,9L11.81248,17.6142006    c-0.5009003,0.2626991-0.8125,0.7773991-0.8125,1.3437996V48h30.0000343V13.7049999    c0-0.4793997-0.2299805-0.9355001-0.6152344-1.2207003L35.6699409,9H28.2465801z" style="fill:#544000;"></path></g><g style="fill:#544000;"><path d="M16.681179,25.3446999c-0.6708984,0-1.3393993-0.1856003-1.9345989-0.5536995    C13.6528797,24.1152,12.99998,22.9442997,12.99998,21.6581993c0-1.4042988,0.7803001-2.6669998,2.0367002-3.2939987    l6.6332989-3.3174009c1.1499004-0.5752001,2.4902-0.5145998,3.5835018,0.1622    c1.0936985,0.6757002,1.7465,1.8465996,1.7465,3.1328011c0,1.4032993-0.780201,2.6659985-2.0356007,3.294899l-6.6338005,3.3164005    C17.806179,25.2147999,17.2426796,25.3446999,16.681179,25.3446999z M22.5634804,16.8358994l-6.6328001,3.3174    c-0.5742006,0.2870998-0.9307003,0.8633003-0.9307003,1.5049c0,0.5966015,0.2911005,1.1181011,0.7983999,1.4316006    c0.5072994,0.3145008,1.1040001,0.3428001,1.6382008,0.0741997l6.6327991-3.3163986    c0.5737-0.2871017,0.9306011-0.8642006,0.9306011-1.5058002c0-0.5967007-0.2910004-1.1182003-0.7983017-1.4316998    C23.6948795,16.5965996,23.0991802,16.5683002,22.5634804,16.8358994L22.5634804,16.8358994z" style="fill:#544000;"></path></g></g></svg>