<svg xmlns="http://www.w3.org/2000/svg" xmlns:xlink="http://www.w3.org/1999/xlink" version="1.1" x="0px" y="0px" viewBox="0 0 100 100" enable-background="new 0 0 100 100" xml:space="preserve" style="max-width:100%" height="100%"><g style="fill:#544000;"><g style="fill:#544000;"><path d="M50,88.1l-1.2-1.4c-1-1.2-25.7-29.1-25.7-47.8C23.1,24,35.2,11.9,50,11.9S76.9,24,76.9,38.9c0,18.9-24.6,46.6-25.7,47.8    L50,88.1z M50,15.3c-13,0-23.6,10.6-23.6,23.6C26.4,54.1,45,77.1,50,83c5-5.9,23.6-28.9,23.6-44.2C73.6,25.8,63,15.3,50,15.3z" style="fill:#544000;"></path></g><g style="fill:#544000;"><path d="M50,51c-6.7,0-12.1-5.4-12.1-12.1S43.3,26.8,50,26.8s12.1,5.4,12.1,12.1S56.7,51,50,51z M50,30.1c-4.8,0-8.8,3.9-8.8,8.8    s3.9,8.8,8.8,8.8s8.8-3.9,8.8-8.8S54.8,30.1,50,30.1z" style="fill:#544000;"></path></g></g></svg>