<svg xmlns="http://www.w3.org/2000/svg" xmlns:xlink="http://www.w3.org/1999/xlink" version="1.1" x="0px" y="0px" viewBox="0 0 100 100" enable-background="new 0 0 100 100" xml:space="preserve" style="max-width:100%" height="100%"><g style="" fill="currentColor"><circle fill-rule="evenodd" clip-rule="evenodd" cx="50" cy="76.805" r="8.428" style="fill:#544000;"></circle><path fill-rule="evenodd" clip-rule="evenodd" d="M8.406,35.754c-1.86,1.85-4.672-0.979-2.813-2.828   c24.316-24.212,64.496-24.212,88.813,0c1.86,1.85-0.952,4.678-2.813,2.828C68.837,13.094,31.163,13.094,8.406,35.754z" style="fill:#544000;"></path><path fill-rule="evenodd" clip-rule="evenodd" d="M22.159,49.507c-1.86,1.85-4.672-0.979-2.813-2.828   c16.797-16.694,44.51-16.694,61.307,0c1.859,1.85-0.953,4.678-2.813,2.828C62.605,34.365,37.395,34.365,22.159,49.507z" style="fill:#544000;"></path><path fill-rule="evenodd" clip-rule="evenodd" d="M35.783,63.146c-1.87,1.84-4.667-1.004-2.796-2.844   c9.341-9.232,24.686-9.231,34.027,0c1.87,1.84-0.926,4.684-2.797,2.844C56.426,55.445,43.574,55.445,35.783,63.146z" style="fill:#544000;"></path></g></svg>