<svg xmlns="http://www.w3.org/2000/svg" xmlns:xlink="http://www.w3.org/1999/xlink" viewBox="0 0 50 50" version="1.1" style="max-width:100%" height="100%">
<g>
<path style="fill:#544000;" d="M 4.9375 19.625 C 4.828125 19.628906 4.71875 19.648438 4.59375 19.6875 C 4.34375 19.769531 3.953125 20.042969 3.8125 20.46875 C 3.671875 20.894531 3.800781 21.230469 3.90625 21.4375 C 4.011719 21.644531 4.117188 21.785156 4.25 21.9375 C 4.382813 22.089844 4.449219 22.113281 4.59375 22.25 C 4.738281 22.386719 4.929688 22.574219 5.15625 22.78125 C 5.613281 23.195313 6.214844 23.753906 6.875 24.34375 C 8.074219 25.417969 9.378906 26.582031 10.375 27.46875 C 10.292969 27.648438 10.203125 27.8125 10.125 28 C 9.398438 29.738281 8.75 31.804688 8.75 33.8125 C 7.039063 34.785156 5.632813 36.050781 4.5625 37.34375 C 2.859375 39.398438 1.90625 41.5 1.90625 43.1875 C 1.90625 43.445313 1.914063 43.671875 1.9375 43.90625 C 1.671875 43.886719 1.40625 43.851563 1.15625 43.8125 C 0.789063 43.722656 0.40625 43.847656 0.160156 44.132813 C -0.0859375 44.417969 -0.148438 44.820313 -0.00390625 45.167969 C 0.140625 45.515625 0.46875 45.753906 0.84375 45.78125 C 1.433594 45.871094 2.09375 45.9375 2.84375 45.9375 C 4.390625 45.9375 6.550781 45.515625 8.375 44.34375 C 10.203125 45.527344 12.382813 45.9375 13.9375 45.9375 C 15.484375 45.9375 17.644531 45.515625 19.46875 44.34375 C 21.292969 45.515625 23.453125 45.9375 25 45.9375 C 26.546875 45.9375 28.707031 45.515625 30.53125 44.34375 C 32.355469 45.515625 34.515625 45.9375 36.0625 45.9375 C 37.617188 45.9375 39.796875 45.527344 41.625 44.34375 C 43.449219 45.515625 45.609375 45.9375 47.15625 45.9375 C 48.019531 45.9375 48.75 45.804688 49.34375 45.59375 C 49.871094 45.402344 50.144531 44.824219 49.953125 44.296875 C 49.761719 43.769531 49.183594 43.496094 48.65625 43.6875 C 48.261719 43.828125 47.804688 43.9375 47.15625 43.9375 C 45.800781 43.9375 43.570313 43.503906 42.21875 42.4375 C 41.859375 42.160156 41.359375 42.160156 41 42.4375 C 40.242188 43.035156 39.21875 43.421875 38.21875 43.65625 C 40.230469 41.871094 41.992188 39.5 43.59375 37 C 45.9375 33.335938 47.941406 29.355469 49.5625 26.5 C 50.023438 25.6875 50.105469 24.726563 49.59375 24.0625 C 49.082031 23.398438 48.285156 23.292969 47.625 23.4375 C 47.613281 23.4375 47.605469 23.4375 47.59375 23.4375 C 47.59375 23.4375 43.054688 24.558594 40.78125 25.125 C 40.761719 25.125 40.738281 25.125 40.71875 25.125 C 40.71875 25.125 37.746094 24.148438 34.3125 23.21875 C 32.59375 22.753906 30.78125 22.304688 29.125 22 C 27.46875 21.695313 26.023438 21.496094 24.875 21.65625 C 23.429688 21.859375 20.515625 22.226563 17.90625 22.625 C 16.8125 22.792969 15.8125 22.980469 14.9375 23.15625 C 14.898438 23.121094 14.855469 23.089844 14.8125 23.0625 C 13.71875 22.441406 12.535156 21.757813 11.59375 21.21875 C 10.652344 20.679688 9.851563 20.222656 9.84375 20.21875 C 9.585938 20.050781 9.441406 19.914063 9.125 19.78125 C 8.808594 19.648438 8.46875 19.625 8.125 19.625 L 5.25 19.625 C 5.148438 19.625 5.046875 19.621094 4.9375 19.625 Z M 6.84375 21.625 L 8.125 21.625 C 8.390625 21.625 8.359375 21.632813 8.34375 21.625 C 8.328125 21.617188 8.457031 21.679688 8.75 21.875 C 9.046875 22.070313 9.679688 22.425781 10.625 22.96875 C 11.140625 23.261719 11.773438 23.625 12.375 23.96875 C 12.304688 24.03125 12.234375 24.074219 12.15625 24.1875 C 11.941406 24.488281 11.625 24.976563 11.28125 25.59375 C 10.335938 24.75 9.265625 23.785156 8.21875 22.84375 C 7.695313 22.375 7.25 21.992188 6.84375 21.625 Z M 25.78125 23.625 C 26.515625 23.632813 27.574219 23.75 28.75 23.96875 C 30.320313 24.257813 32.128906 24.699219 33.8125 25.15625 C 35.03125 25.488281 36.015625 25.796875 37 26.09375 C 27.710938 28.417969 15.78125 31.414063 12.09375 32.4375 C 11.644531 32.5625 11.234375 32.714844 10.8125 32.875 C 10.972656 31.527344 11.425781 30.042969 11.96875 28.75 C 12.636719 27.15625 13.417969 25.90625 13.71875 25.46875 C 13.746094 25.460938 13.746094 25.449219 13.78125 25.4375 C 14.011719 25.363281 14.371094 25.28125 14.8125 25.1875 C 15.699219 25 16.933594 24.789063 18.21875 24.59375 C 20.792969 24.203125 23.675781 23.867188 25.15625 23.65625 C 25.316406 23.632813 25.535156 23.621094 25.78125 23.625 Z M 47.90625 25.4375 C 47.898438 25.464844 47.882813 25.417969 47.84375 25.5 C 47.824219 25.539063 47.84375 25.472656 47.8125 25.53125 C 46.144531 28.46875 44.199219 32.375 41.9375 35.90625 C 39.734375 39.347656 37.214844 42.378906 34.59375 43.78125 C 33.410156 43.582031 32.089844 43.171875 31.15625 42.4375 C 30.789063 42.144531 30.273438 42.144531 29.90625 42.4375 C 28.554688 43.503906 26.355469 43.9375 25 43.9375 C 23.644531 43.9375 21.449219 43.503906 20.09375 42.4375 C 19.726563 42.144531 19.210938 42.144531 18.84375 42.4375 C 17.492188 43.503906 15.292969 43.9375 13.9375 43.9375 C 12.582031 43.9375 10.351563 43.503906 9 42.4375 C 8.8125 42.289063 8.582031 42.210938 8.34375 42.21875 C 8.136719 42.230469 7.941406 42.308594 7.78125 42.4375 C 6.773438 43.230469 5.289063 43.667969 4.03125 43.84375 C 4.003906 43.800781 3.972656 43.757813 3.9375 43.71875 C 3.925781 43.636719 3.90625 43.480469 3.90625 43.1875 C 3.90625 42.382813 4.613281 40.410156 6.09375 38.625 C 7.574219 36.839844 9.785156 35.160156 12.625 34.375 C 17.988281 32.890625 47.585938 25.515625 47.90625 25.4375 Z M 30 33 C 29.867188 33 29.730469 33.003906 29.59375 33.03125 C 28.507813 33.253906 27.804688 34.324219 28.03125 35.40625 C 28.253906 36.484375 29.320313 37.195313 30.40625 36.96875 C 31.484375 36.742188 32.195313 35.671875 31.96875 34.59375 C 31.769531 33.648438 30.929688 32.996094 30 33 Z M 24 34 C 23.867188 34 23.730469 34.003906 23.59375 34.03125 C 22.507813 34.253906 21.804688 35.324219 22.03125 36.40625 C 22.253906 37.484375 23.320313 38.195313 24.40625 37.96875 C 25.484375 37.742188 26.195313 36.671875 25.96875 35.59375 C 25.769531 34.648438 24.929688 33.996094 24 34 Z M 18 35 C 17.867188 35 17.730469 35.003906 17.59375 35.03125 C 16.507813 35.253906 15.804688 36.324219 16.03125 37.40625 C 16.253906 38.484375 17.320313 39.195313 18.40625 38.96875 C 19.484375 38.742188 20.195313 37.671875 19.96875 36.59375 C 19.769531 35.648438 18.929688 34.996094 18 35 Z M 8.25 46.21875 C 8.078125 46.25 7.914063 46.324219 7.78125 46.4375 C 6.429688 47.503906 4.199219 47.9375 2.84375 47.9375 C 2.214844 47.9375 1.675781 47.890625 1.15625 47.8125 C 0.789063 47.722656 0.40625 47.847656 0.160156 48.132813 C -0.0859375 48.417969 -0.148438 48.820313 -0.00390625 49.167969 C 0.140625 49.515625 0.46875 49.753906 0.84375 49.78125 C 1.433594 49.871094 2.09375 49.9375 2.84375 49.9375 C 4.390625 49.9375 6.550781 49.515625 8.375 48.34375 C 10.203125 49.527344 12.382813 49.9375 13.9375 49.9375 C 15.484375 49.9375 17.644531 49.515625 19.46875 48.34375 C 21.292969 49.515625 23.453125 49.9375 25 49.9375 C 26.546875 49.9375 28.707031 49.515625 30.53125 48.34375 C 32.355469 49.515625 34.515625 49.9375 36.0625 49.9375 C 37.617188 49.9375 39.796875 49.527344 41.625 48.34375 C 43.449219 49.515625 45.609375 49.9375 47.15625 49.9375 C 48.019531 49.9375 48.75 49.804688 49.34375 49.59375 C 49.871094 49.402344 50.144531 48.824219 49.953125 48.296875 C 49.761719 47.769531 49.183594 47.496094 48.65625 47.6875 C 48.261719 47.828125 47.804688 47.9375 47.15625 47.9375 C 45.800781 47.9375 43.570313 47.503906 42.21875 46.4375 C 41.859375 46.160156 41.359375 46.160156 41 46.4375 C 39.648438 47.503906 37.417969 47.9375 36.0625 47.9375 C 34.707031 47.9375 32.511719 47.503906 31.15625 46.4375 C 30.789063 46.144531 30.273438 46.144531 29.90625 46.4375 C 28.554688 47.503906 26.355469 47.9375 25 47.9375 C 23.644531 47.9375 21.449219 47.503906 20.09375 46.4375 C 19.726563 46.144531 19.210938 46.144531 18.84375 46.4375 C 17.492188 47.503906 15.292969 47.9375 13.9375 47.9375 C 12.582031 47.9375 10.351563 47.503906 9 46.4375 C 8.8125 46.289063 8.582031 46.210938 8.34375 46.21875 C 8.3125 46.21875 8.28125 46.21875 8.25 46.21875 Z " fill="currentColor"></path>
</g>
</svg>